<svg id="Layer_1" data-name="Layer 1" xmlns="http://www.w3.org/2000/svg" viewBox="0 0 640 512"><defs><style>.cls-1{fill:#fff;}</style></defs><title>auto</title><path class="cls-1" d="M32,224H64V416H32A32,32,0,0,1,0,384.08V256a32,32,0,0,1,31.92-32Zm512-48V448a64.06,64.06,0,0,1-64,64H160a64.06,64.06,0,0,1-64-64V176A80,80,0,0,1,176,96H288V32a32,32,0,0,1,64,0V96H464A80,80,0,0,1,544,176ZM264,256a40,40,0,1,0-40,40,40,40,0,0,0,40-40Zm-8,128H192v32h64Zm96,0H288v32h64ZM456,256a40,40,0,1,0-40,40,40,40,0,0,0,40-40Zm-8,128H384v32h64ZM640,256V384a32,32,0,0,1-31.92,32H576V224h32a32,32,0,0,1,32,31.92Z" transform="translate(0)"/></svg>