<svg id="Layer_1" data-name="Layer 1" xmlns="http://www.w3.org/2000/svg" viewBox="0 0 384 512"><defs><style>.cls-1{fill:#fff;}</style></defs><title>stable1</title><path class="cls-1" d="M256,160V16A16,16,0,0,0,240,0H208a16,16,0,0,0-16,16V162.93A47.56,47.56,0,0,1,208,160Zm128,96a64,64,0,0,0-64-64H207.85A15.86,15.86,0,0,0,192,207.85v.56A47.59,47.59,0,0,0,239.52,256h35.26c9.68,0,13.2,3.58,13.2,8v16.2a8.22,8.22,0,0,1-7.88,8c-44.52,2.28-64.16,24.71-96.05,72.55l-6.31,9.47a8,8,0,0,1-11.08,2.22h0l-13.31-8.88a8,8,0,0,1-2.22-11.08h0l6.31-9.47c15.73-23.6,30.2-43.26,47.31-58.08a64.34,64.34,0,0,1-38.87-34.45A47.4,47.4,0,0,1,144,256H112a47.65,47.65,0,0,1-32-12.48A47.65,47.65,0,0,1,48,256H16a47.26,47.26,0,0,1-16-2.95V331a128,128,0,0,0,37.49,90.51L64,448v64H320V448l35.91-35.92A96,96,0,0,0,384,344.21L384,256ZM352,165.9V48a16,16,0,0,0-16-16H304a16,16,0,0,0-16,16V160h32A94.76,94.76,0,0,1,352,165.9ZM16,224H48a16,16,0,0,0,16-16V80A16,16,0,0,0,48,64H16A16,16,0,0,0,0,80V208A16,16,0,0,0,16,224Zm96,0h32a16,16,0,0,0,16-16V48a16,16,0,0,0-16-16H112A16,16,0,0,0,96,48V208A16,16,0,0,0,112,224Z"/></svg>