<svg id="Layer_1" data-name="Layer 1" xmlns="http://www.w3.org/2000/svg" viewBox="0 0 417.7 417.7"><defs><style>.cls-1{fill:#78a4fa;}.cls-2{fill:#b056d6;}.cls-3{fill:blue;}.cls-4{fill:#ff8af9;}</style></defs><title>Un2</title><circle class="cls-1" cx="208.85" cy="208.85" r="208.85"/><path class="cls-2" d="M351.91,220.65c28.37-13.56,11.39-43-15.77-43h-50a19,19,0,0,0-16.42,28.44l39.09,67.72Z" transform="translate(-45.26 -52.4)"/><path d="M302.83,277.3l-39.1-67.72a25.88,25.88,0,0,1,22.42-38.82h50c17.64,0,33.43,11,36.73,25.55,2.82,12.42-3.9,23.86-18,30.59l-6-12.5c4.67-2.23,12.23-7.15,10.44-15-1.64-7.26-10.78-14.76-23.22-14.76h-50a12,12,0,0,0-10.42,18l39.09,67.71Z" transform="translate(-45.26 -52.4)"/><path class="cls-3" d="M371.31,193.06A30.53,30.53,0,0,0,345,177.86h-9.37l-30.95,53.61h.12l-50.06,86.71L223.8,264.61a26.16,26.16,0,0,1-1.45-2.25l-48.78-84.5h-9.12a30.41,30.41,0,0,0-26.33,45.61l68.76,119.07,11.53,20,10,17.29a30.38,30.38,0,0,0,52.63,0l90.28-156.33A30.55,30.55,0,0,0,371.31,193.06ZM144.13,220a23.47,23.47,0,0,1,20.32-35.22h5.12l46.78,81c.5.85,1,1.7,1.61,2.53l28.74,49.78-14.79,25.61A10.63,10.63,0,0,1,218,348Zm221.17,0L275,376.33a23.47,23.47,0,0,1-40.65,0l-7.92-13.73a24.12,24.12,0,0,0,17.44-11.93L254.69,332l0,0,62.06-107.49h-.13l23-39.75H345A23.47,23.47,0,0,1,365.3,220Z" transform="translate(-45.26 -52.4)"/><path d="M377.3,189.6A37.43,37.43,0,0,0,345,170.93H331.61l-38.95,67.46h.12l-38.06,65.94L229.8,261.15l-.36-.56c-.39-.55-.76-1.12-1.09-1.7l-50.79-88H164.45a37.34,37.34,0,0,0-32.32,56l90.26,156.32a37.32,37.32,0,0,0,64.65,0L377.3,226.92a37.45,37.45,0,0,0,0-37.32ZM365.3,220,275,376.33a23.47,23.47,0,0,1-40.65,0l-7.92-13.73L218,348,144.13,220a23.47,23.47,0,0,1,20.32-35.22h5.12l46.78,81c.5.85,1,1.7,1.61,2.53l28.74,49.78,8,13.86,0,0,62.06-107.49h-.13l23-39.75H345A23.47,23.47,0,0,1,365.3,220Z" transform="translate(-45.26 -52.4)"/><path class="cls-2" d="M246.7,318.13l-14.79,25.61A10.63,10.63,0,0,1,218,348L144.13,220a23.47,23.47,0,0,1,20.32-35.22h5.12l46.78,81c.5.85,1,1.7,1.61,2.53Z" transform="translate(-45.26 -52.4)"/><path class="cls-4" d="M365.3,220,275,376.33a23.47,23.47,0,0,1-40.65,0l-7.92-13.73a24.12,24.12,0,0,0,17.44-11.93L254.69,332l0,0,62.06-107.49h-.13l23-39.75H345A23.47,23.47,0,0,1,365.3,220Z" transform="translate(-45.26 -52.4)"/><path class="cls-4" d="M192.75,277.62l46-79.63a13.46,13.46,0,0,0-11.66-20.18H135.13A13.46,13.46,0,0,0,123.47,198l46,79.63A13.45,13.45,0,0,0,192.75,277.62Z" transform="translate(-45.26 -52.4)"/><path d="M181.1,287.79h0a23.61,23.61,0,0,1-20.67-11.94L120.5,206.69a23.88,23.88,0,0,1,20.67-35.81H221a23.88,23.88,0,0,1,20.67,35.81l-39.93,69.16A23.61,23.61,0,0,1,181.1,287.79Zm-39.93-103a10,10,0,0,0-8.68,15l39.93,69.17a10,10,0,0,0,17.36,0l39.93-69.17a10,10,0,0,0-8.68-15Z" transform="translate(-45.26 -52.4)"/><path d="M256.57,328.74,254.69,332l-10.78,18.68a24.45,24.45,0,0,1-25.5,11.83,24.52,24.52,0,0,1-2.79-.65L205,343.44l1.89-.9,4.68-2.23,2,3.43a10.59,10.59,0,0,0,18.37,0l14.79-25.61,1.76-3.05Z" transform="translate(-45.26 -52.4)"/></svg>